<?xml version="1.0" ?>
<!DOCTYPE svg  PUBLIC '-//W3C//DTD SVG 1.1//EN'  'http://www.w3.org/Graphics/SVG/1.1/DTD/svg11.dtd'>
<svg enable-background="new 0 0 190 130" viewBox="0 0 190 130" width="475px" height="325px" id="Layer_1" version="1.1" xml:space="preserve" xmlns="http://www.w3.org/2000/svg" xmlns:xlink="http://www.w3.org/1999/xlink">
	<defs>
		<linearGradient id="gradient1">
			<stop class="stop1" offset="0%" />
			<stop class="stop1" offset="50%" />
			<stop class="stop2" offset="50%" />
			<stop class="stop2" offset="100%" />
		</linearGradient>
		<linearGradient id="gradient2">
			<stop class="stop3" offset="0%" />
			<stop class="stop3" offset="50%" />
			<stop class="stop4" offset="50%" />
			<stop class="stop4" offset="100%" />
		</linearGradient>
		<linearGradient id="gradient3">
			<stop class="stop1" offset="0%" />
			<stop class="stop1" offset="6.25%" />
			<stop class="stop2" offset="6.25%" />
			<stop class="stop2" offset="50%" />
			<stop class="stop3" offset="50%" />
			<stop class="stop3" offset="93.75%" />
			<stop class="stop4" offset="93.75%" />
			<stop class="stop4" offset="100%" />
		</linearGradient>
		<linearGradient id="gradient4">
			<stop class="stop2" offset="0%" />
			<stop class="stop2" offset="50%" />
			<stop class="stop3" offset="50%" />
			<stop class="stop3" offset="100%" />
		</linearGradient>
		<style type="text/css"><![CDATA[
			.stop1 { stop-color: #2696A5; }
			.stop2 { stop-color: #AAAAAA; }
			.stop3 { stop-color: #FFA000; }
			.stop4 { stop-color: #5BA500; }
			.shadow {
				-webkit-filter: drop-shadow( 4px 4px 4px rgba(255, 255, 255, 0.5) );
				filter: drop-shadow( 4px 4px 4px rgba(255, 255, 255, 0.5) );
			}
		]]></style>
		<filter id="dropshadow" height="130%">
			<feGaussianBlur in="SourceAlpha" stdDeviation="1"/> <!-- stdDeviation is how much to blur -->
			<feOffset dx="2" dy="2" result="offsetblur"/> <!-- how much to offset -->
			<feComponentTransfer>
				<feFuncA type="linear" slope="0.6"/> <!-- the opacity -->
			</feComponentTransfer>
			<feMerge>
				<feMergeNode/> <!-- this contains the offset blurred image -->
				<feMergeNode in="SourceGraphic"/> <!-- this contains the element that the filter is applied to -->
			</feMerge>
		</filter>
	</defs>

	<!-- <line x1="10" x2="10" y1="0" y2="100%" stroke="#AAA" stroke-width="1" />
	<line x1="20" x2="20" y1="0" y2="100%" stroke="#AAA" stroke-width="1" />
	<line x1="30" x2="30" y1="0" y2="100%" stroke="#AAA" stroke-width="1" />
	<line x1="40" x2="40" y1="0" y2="100%" stroke="#AAA" stroke-width="1" />
	<line x1="50" x2="50" y1="0" y2="100%" stroke="#000" stroke-width="1" />
	<line x1="60" x2="60" y1="0" y2="100%" stroke="#AAA" stroke-width="1" />
	<line x1="70" x2="70" y1="0" y2="100%" stroke="#AAA" stroke-width="1" />
	<line x1="80" x2="80" y1="0" y2="100%" stroke="#AAA" stroke-width="1" />
	<line x1="90" x2="90" y1="0" y2="100%" stroke="#AAA" stroke-width="1" />
	<line x1="100" x2="100" y1="0" y2="100%" stroke="#000" stroke-width="1" />
	<line x1="110" x2="110" y1="0" y2="100%" stroke="#AAA" stroke-width="1" />
	<line x1="120" x2="120" y1="0" y2="100%" stroke="#AAA" stroke-width="1" />
	<line x1="130" x2="130" y1="0" y2="100%" stroke="#AAA" stroke-width="1" />
	<line x1="140" x2="140" y1="0" y2="100%" stroke="#AAA" stroke-width="1" />
	<line x1="150" x2="150" y1="0" y2="100%" stroke="#000" stroke-width="1" />
	<line x1="160" x2="160" y1="0" y2="100%" stroke="#AAA" stroke-width="1" />
	<line x1="170" x2="170" y1="0" y2="100%" stroke="#AAA" stroke-width="1" />
	<line x1="180" x2="180" y1="0" y2="100%" stroke="#AAA" stroke-width="1" />
	<line x1="190" x2="190" y1="0" y2="100%" stroke="#AAA" stroke-width="1" />
	<line x1="200" x2="200" y1="0" y2="100%" stroke="#000" stroke-width="1" />

	<line y1="10" y2="10" x1="0" x2="100%" stroke="#AAA" stroke-width="1" />
	<line y1="20" y2="20" x1="0" x2="100%" stroke="#AAA" stroke-width="1" />
	<line y1="30" y2="30" x1="0" x2="100%" stroke="#AAA" stroke-width="1" />
	<line y1="40" y2="40" x1="0" x2="100%" stroke="#AAA" stroke-width="1" />
	<line y1="50" y2="50" x1="0" x2="100%" stroke="#000" stroke-width="1" />
	<line y1="60" y2="60" x1="0" x2="100%" stroke="#AAA" stroke-width="1" />
	<line y1="70" y2="70" x1="0" x2="100%" stroke="#AAA" stroke-width="1" />
	<line y1="80" y2="80" x1="0" x2="100%" stroke="#AAA" stroke-width="1" />
	<line y1="90" y2="90" x1="0" x2="100%" stroke="#AAA" stroke-width="1" />
	<line y1="100" y2="100" x1="0" x2="100%" stroke="#000" stroke-width="1" />
	<line y1="110" y2="110" x1="0" x2="100%" stroke="#AAA" stroke-width="1" />
	<line y1="120" y2="120" x1="0" x2="100%" stroke="#AAA" stroke-width="1" /> -->

	<g style="filter:url(#dropshadow)">
		<rect x="10" y="10" rx="5" ry="5" width="60" height="10" fill="#2696A5" />
		<rect x="10" y="40" rx="5" ry="5" width="60" height="10" fill="#AAAAAA" />
		<rect x="45" y="25" rx="5" ry="5" width="40" height="10" fill="url(#gradient1)" transform="rotate(90, 65, 30)" />

		<rect x="10" y="80" rx="5" ry="5" width="60" height="10" fill="#FFA000" />
		<rect x="10" y="110" rx="5" ry="5" width="60" height="10" fill="#5BA500" />
		<rect x="45" y="95" rx="5" ry="5" width="40" height="10" fill="url(#gradient2)" transform="rotate(90, 65, 100)" />

		<rect x="90" y="0" rx="5" ry="5" width="10" height="60" fill="url(#gradient1)" transform="rotate(90, 95, 30)" />
		<rect x="90" y="70" rx="5" ry="5" width="10" height="60" fill="url(#gradient2)" transform="rotate(90, 95, 100)" />
		<rect x="80" y="60" rx="5" ry="5" width="80" height="10" fill="url(#gradient3)" transform="rotate(90, 120, 65)" />

		<rect x="145" y="35" rx="5" ry="5" width="10" height="60" fill="url(#gradient4)" transform="rotate(90, 150, 65)" />
	</g>
</svg>
